<svg enable-background="new 0 0 24 24" height="73" viewBox="0 0 24 24" width="71" xmlns="http://www.w3.org/2000/svg"><path d="m22.25 5.009h-20.5c-.96 0-1.75.79-1.75 1.75v3.5c0 .96.79 1.75 1.75 1.75h.25.75.75 7.75 1.5 7.75.75.75.25c.96 0 1.75-.79 1.75-1.75v-3.5c0-.96-.79-1.75-1.75-1.75z"/><path d="m2.75 13.509h-.75v7.75c0 1.52 1.23 2.75 2.75 2.75h6.5v-.75-.75-9h-7.75z"/><path d="m20.5 13.509h-7.75v9 .75.75h6.5c1.52 0 2.75-1.23 2.75-2.75v-7.75h-.75z"/><path d="m16.724.91c-1.002-1.001-2.747-1.001-3.747 0-.365.365-.698 1.123-.977 1.929-.279-.806-.612-1.564-.977-1.929-1-1.002-2.745-1.001-3.747 0-.501.5-.776 1.165-.776 1.873s.275 1.374.776 1.874c.832.832 3.702 1.518 4.562 1.708.054.013.108.019.162.019s.108-.006.162-.018c.859-.19 3.729-.877 4.562-1.708.501-.5.776-1.166.776-1.874s-.275-1.374-.776-1.874zm-8.387 2.687c-.217-.217-.337-.506-.337-.814s.119-.595.337-.813.506-.336.813-.336.596.12.812.336c.265.265.675 1.415 1.009 2.635-1.219-.334-2.369-.743-2.634-1.008zm7.326 0c-.265.264-1.415.674-2.635 1.008.334-1.22.744-2.37 1.009-2.635.217-.217.506-.336.812-.336.308 0 .596.12.813.337s.338.505.338.812-.12.597-.337.814z"/></svg>